<svg width="22" height="22" viewBox="0 0 22 22" fill="none" xmlns="http://www.w3.org/2000/svg">
<path d="M22 11C22 17.0751 17.0751 22 11 22C4.92556 22 0 17.0751 0 11C0 4.92556 4.92556 0 11 0C17.0751 0 22 4.92556 22 11Z" fill="#FFCC4D"/>
<path d="M7.02778 12.2222C7.87155 12.2222 8.55556 11.2646 8.55556 10.0833C8.55556 8.90207 7.87155 7.94446 7.02778 7.94446C6.18401 7.94446 5.5 8.90207 5.5 10.0833C5.5 11.2646 6.18401 12.2222 7.02778 12.2222Z" fill="#664500"/>
<path d="M17.3895 10.8757C17.3528 10.7932 16.4734 8.86084 14.6658 8.86084C12.8587 8.86084 11.9787 10.7932 11.942 10.8757C11.8858 11.0022 11.9225 11.1501 12.0307 11.2368C12.1376 11.3236 12.291 11.3267 12.4034 11.2454C12.4108 11.2399 13.1747 10.6942 14.6658 10.6942C16.1483 10.6942 16.911 11.2326 16.9281 11.2448C16.9819 11.2851 17.0467 11.3053 17.1102 11.3053C17.1774 11.3053 17.2453 11.2827 17.3009 11.2387C17.409 11.1519 17.4463 11.0028 17.3895 10.8757ZM3.66516 7.61296C3.53805 7.61296 3.4091 7.57323 3.2991 7.49073C3.02899 7.28846 2.9746 6.90529 3.17688 6.63518C5.17032 3.97684 7.8311 3.94629 7.94355 3.94629C8.28088 3.94629 8.55466 4.22007 8.55466 4.5574C8.55466 4.89412 8.28271 5.16729 7.94599 5.16851C7.85066 5.16973 5.76494 5.22107 4.15405 7.36851C4.03488 7.52862 3.85094 7.61296 3.66516 7.61296ZM17.7219 8.91157C17.5355 8.91157 17.3528 8.82723 17.2324 8.66712C15.6484 6.55451 12.9785 7.06173 12.9522 7.06601C12.6179 7.13201 12.2995 6.91751 12.2329 6.5869C12.1669 6.25568 12.3814 5.93423 12.712 5.86762C12.8532 5.8389 16.1691 5.21251 18.2096 7.93318C18.4125 8.20329 18.3575 8.58646 18.0874 8.78873C17.978 8.87246 17.8497 8.91157 17.7219 8.91157ZM14.2099 14.4079C14.095 14.3407 13.9459 14.3547 13.845 14.4446C13.8389 14.4495 13.226 14.972 10.9991 14.972C8.77405 14.972 8.15988 14.4501 8.15988 14.4501C8.06271 14.3523 7.91299 14.334 7.79321 14.4C7.67405 14.4678 7.61416 14.6071 7.64777 14.7403C7.65388 14.7672 8.34688 17.4164 10.9991 17.4164C13.6513 17.4164 14.3443 14.7672 14.351 14.7403C14.3834 14.6102 14.3242 14.477 14.2099 14.4079Z" fill="#664500"/>
</svg>
