<svg width="121" height="26" viewBox="0 0 121 26" fill="none" xmlns="http://www.w3.org/2000/svg">
<path fill-rule="evenodd" clip-rule="evenodd" d="M16.7376 0.767952C17.3509 1.09375 17.8228 1.52427 18.1531 2.05951C18.4834 2.57148 18.6485 3.11835 18.6485 3.70013C18.6485 4.25865 18.4952 4.78225 18.1885 5.27095C17.8818 5.75964 17.4217 6.15526 16.8083 6.45778C16.1949 6.76031 15.44 6.91157 14.5435 6.91157H12.1371C12.1371 7.88897 12.1607 9.16889 12.2079 10.7513H10.6154C10.6626 8.98272 10.6862 7.23737 10.6862 5.5153C10.6862 3.79322 10.6626 2.04787 10.6154 0.279255H14.5081C15.381 0.279255 16.1242 0.442154 16.7376 0.767952ZM14.1896 6.59741C14.8502 6.59741 15.4046 6.46942 15.8529 6.21343C16.3011 5.93418 16.6432 5.57347 16.8791 5.13132C17.115 4.68916 17.233 4.2121 17.233 3.70013C17.233 3.1649 17.115 2.66456 16.8791 2.19914C16.6196 1.71044 16.2657 1.32646 15.8175 1.04721C15.3692 0.767952 14.8266 0.628325 14.1896 0.628325H12.1725C12.1489 1.97806 12.1371 3.45579 12.1371 5.0615V6.59741H14.1896ZM25.443 10.9608C24.287 10.9608 23.2725 10.6815 22.3996 10.123C21.5503 9.58777 20.9133 8.878 20.4887 7.99369C20.0404 7.10938 19.8163 6.19016 19.8163 5.23604C19.8163 4.35173 20.005 3.53724 20.3825 2.79255C20.7364 2.0246 21.2908 1.39628 22.0457 0.90758C22.8007 0.395612 23.7208 0.104721 24.806 0.0349069C24.9004 0.0349069 25.0537 0.0349069 25.266 0.0349069C26.422 0.0349069 27.4247 0.302527 28.274 0.837766C29.0997 1.39628 29.7367 2.10605 30.185 2.96709C30.6096 3.8514 30.8219 4.77061 30.8219 5.72474C30.8219 6.5625 30.6568 7.34209 30.3265 8.0635C29.9962 8.80818 29.5008 9.43651 28.8402 9.94847C28.1796 10.4372 27.3775 10.7513 26.4338 10.891C26.0564 10.9375 25.7261 10.9608 25.443 10.9608ZM28.0263 9.87866C28.4745 9.45978 28.8166 8.92454 29.0525 8.27294C29.2649 7.62135 29.371 6.91157 29.371 6.14362C29.371 5.14295 29.1941 4.1772 28.8402 3.24634C28.4628 2.33876 27.9319 1.59408 27.2478 1.0123C26.5636 0.45379 25.7615 0.209442 24.8414 0.279255C24.0393 0.325798 23.3787 0.558511 22.8597 0.977394C22.317 1.39628 21.916 1.94315 21.6565 2.61802C21.397 3.29289 21.2672 4.02593 21.2672 4.81716C21.2672 5.79455 21.4559 6.73704 21.8334 7.64462C22.1873 8.5522 22.7063 9.28524 23.3905 9.84375C24.0982 10.4255 24.9004 10.7164 25.7969 10.7164C25.962 10.7164 26.1507 10.7048 26.3631 10.6815C27.0236 10.5884 27.5781 10.3208 28.0263 9.87866ZM42.0399 8.20313C41.7568 8.92454 41.2732 9.54123 40.589 10.0532C39.8812 10.5652 38.9612 10.8211 37.8288 10.8211C36.6492 10.8211 35.6229 10.5652 34.75 10.0532C33.9007 9.5645 33.2637 8.9129 32.8391 8.09841C32.4144 7.28391 32.2021 6.42288 32.2021 5.5153C32.2021 4.58444 32.4144 3.71177 32.8391 2.89728C33.2637 2.08278 33.9007 1.43118 34.75 0.942487C35.5993 0.430519 36.6138 0.174535 37.7934 0.174535C38.9494 0.174535 39.8812 0.430519 40.589 0.942487C41.2968 1.45446 41.7686 2.07114 42.0045 2.79255L40.9783 2.82746C40.7895 2.15259 40.4239 1.58245 39.8812 1.11702C39.3622 0.651596 38.6899 0.418883 37.8641 0.418883C36.9676 0.418883 36.2009 0.63996 35.5639 1.08211C34.9269 1.501 34.4551 2.07114 34.1484 2.79255C33.8181 3.51396 33.653 4.28192 33.653 5.09641C33.653 5.93418 33.8181 6.73704 34.1484 7.50499C34.4787 8.27294 34.9505 8.9129 35.5639 9.42487C36.2009 9.93684 36.9558 10.2277 37.8288 10.2975C37.9703 10.3208 38.159 10.3325 38.395 10.3325C39.2443 10.3325 39.952 10.123 40.5182 9.70413C41.108 9.28524 41.5209 8.78491 41.7568 8.20313H42.0399ZM51.2762 0.593418H46.7111C47.3835 2.33876 47.3481 4.22374 47.3481 5.44548C47.3481 7.16756 47.3717 8.92454 47.4189 10.7164H45.8264C45.8736 8.92454 45.909 7.16756 45.9326 5.44548C45.909 4.2121 45.8854 2.59475 45.8618 0.593418H41.8984V0.279255H51.2762V0.593418ZM58.6368 0.733046C59.2738 1.05884 59.7457 1.48936 60.0524 2.0246C60.3826 2.53657 60.5478 3.08345 60.5478 3.66523C60.5478 4.22374 60.3944 4.74734 60.0877 5.23604C59.7811 5.72474 59.321 6.12035 58.7076 6.42287C58.0942 6.7254 57.3393 6.87667 56.4428 6.87667H54.0364C54.0364 7.85406 54.06 9.13398 54.1072 10.7164H52.5147C52.5619 8.94781 52.5855 7.20246 52.5855 5.48039C52.5855 3.75831 52.5619 2.01297 52.5147 0.244349H56.4428C57.2921 0.244349 58.0234 0.407247 58.6368 0.733046ZM56.1243 6.5625C56.7613 6.5625 57.3039 6.43451 57.7521 6.17853C58.224 5.89927 58.5661 5.53857 58.7784 5.09641C59.0143 4.65426 59.1323 4.1772 59.1323 3.66523C59.1323 3.12999 59.0143 2.62966 58.7784 2.16423C58.5425 1.6988 58.1886 1.31483 57.7168 1.0123C57.2685 0.733046 56.7259 0.593418 56.0889 0.593418H54.0718C54.0482 1.94315 54.0364 3.42088 54.0364 5.0266V6.5625H56.1243ZM78.1356 0.244349C78.0884 1.6639 78.0648 3.40924 78.0648 5.48039C78.0648 7.55153 78.0884 9.29688 78.1356 10.7164H76.5431C76.5903 9.41324 76.6139 7.81915 76.6139 5.93418H71.1642C71.1642 7.81915 71.1878 9.41324 71.2349 10.7164H69.6425C69.6897 8.94781 69.7133 7.20246 69.7133 5.48039C69.7133 3.75831 69.6897 2.01297 69.6425 0.244349H71.2349C71.1878 2.03624 71.1642 3.49069 71.1642 4.60772V5.58511H76.6139V4.60772C76.6139 3.49069 76.5903 2.03624 76.5431 0.244349H78.1356ZM89.3536 8.16822C89.094 8.9129 88.6104 9.52959 87.9026 10.0183C87.1949 10.5303 86.2866 10.7862 85.1778 10.7862C83.9746 10.7862 82.9483 10.5419 82.099 10.0532C81.2261 9.54123 80.5774 8.878 80.1527 8.0635C79.728 7.24901 79.5157 6.38797 79.5157 5.48039C79.5157 4.54954 79.728 3.6885 80.1527 2.89728C80.5774 2.08278 81.2143 1.41955 82.0636 0.90758C82.9129 0.395612 83.9274 0.139628 85.107 0.139628C86.2866 0.139628 87.2303 0.395612 87.938 0.90758C88.6458 1.41955 89.1058 2.03624 89.3182 2.75765L88.2919 2.79255C88.1032 2.11769 87.7493 1.54754 87.2303 1.08211C86.7113 0.616689 86.0389 0.383976 85.2132 0.383976C84.2931 0.383976 83.5145 0.605053 82.8776 1.04721C82.2406 1.46609 81.7687 2.03624 81.462 2.75765C81.1318 3.47906 80.9784 4.24701 81.002 5.0615C81.002 5.89927 81.1553 6.70213 81.462 7.47008C81.7923 8.23804 82.276 8.878 82.9129 9.38996C83.5263 9.90193 84.2695 10.1928 85.1424 10.2626C85.2839 10.2859 85.4845 10.2975 85.744 10.2975C86.5697 10.2975 87.2657 10.0881 87.8319 9.66922C88.4217 9.27361 88.8463 8.77327 89.1058 8.16822H89.3536ZM115.434 10.9259C114.278 10.9259 113.276 10.6466 112.426 10.0881C111.577 9.55286 110.928 8.84309 110.48 7.95878C110.032 7.07447 109.808 6.15526 109.808 5.20113C109.808 4.31682 109.997 3.49069 110.374 2.72274C110.751 1.97806 111.306 1.36137 112.037 0.872673C112.792 0.360705 113.712 0.0698139 114.797 0C114.892 0 115.045 0 115.258 0C116.414 0 117.416 0.26762 118.265 0.802859C119.115 1.3381 119.752 2.04787 120.176 2.93218C120.625 3.79322 120.849 4.71244 120.849 5.68983C120.849 6.50432 120.684 7.28391 120.353 8.02859C120.023 8.77328 119.528 9.38996 118.867 9.87866C118.207 10.3906 117.393 10.7048 116.425 10.8211C116.048 10.891 115.718 10.9259 115.434 10.9259ZM118.018 9.84375C118.49 9.4016 118.832 8.85472 119.044 8.20313C119.256 7.55153 119.363 6.85339 119.363 6.10871C119.363 5.10805 119.186 4.14229 118.832 3.21144C118.478 2.28059 117.947 1.53591 117.239 0.977394C116.555 0.418883 115.753 0.174535 114.833 0.244349C114.054 0.290891 113.394 0.523604 112.851 0.942487C112.309 1.36137 111.907 1.90825 111.648 2.58311C111.388 3.25798 111.259 3.99103 111.259 4.78225C111.259 5.75964 111.447 6.70213 111.825 7.60971C112.202 8.51729 112.733 9.25034 113.417 9.80885C114.102 10.3906 114.892 10.6815 115.788 10.6815C115.977 10.6815 116.166 10.6582 116.355 10.6117C117.015 10.5419 117.57 10.2859 118.018 9.84375ZM16.8437 15.6383C17.4571 15.9408 17.9289 16.3597 18.2592 16.895C18.5659 17.4069 18.7193 17.9654 18.7193 18.5705C18.7193 19.129 18.5659 19.6526 18.2592 20.1413C17.9525 20.63 17.4925 21.0256 16.8791 21.3281C16.2657 21.6307 15.5108 21.7819 14.6143 21.7819H12.2079C12.2079 22.7593 12.2315 24.0276 12.2787 25.5868H10.6862C10.757 23.8182 10.7924 22.0728 10.7924 20.3507C10.7924 18.6287 10.757 16.895 10.6862 15.1496H14.6143C15.4636 15.1496 16.2067 15.3125 16.8437 15.6383ZM14.2958 21.4678C14.9328 21.4678 15.4872 21.3281 15.959 21.0489C16.4073 20.7696 16.7376 20.4089 16.9499 19.9668C17.1858 19.5246 17.3038 19.0475 17.3038 18.5356C17.3038 18.0236 17.1858 17.5233 16.9499 17.0346C16.714 16.5692 16.3719 16.1852 15.9236 15.8827C15.4518 15.6034 14.8974 15.4638 14.2604 15.4638H12.2787C12.2315 16.8368 12.2079 18.3261 12.2079 19.9319V21.4678H14.2958ZM27.2124 25.2377V25.5868H20.0994C20.1466 23.8182 20.1702 22.0728 20.1702 20.3507C20.1702 18.6287 20.1466 16.895 20.0994 15.1496H26.8231V15.4638H21.6565C21.6329 16.8135 21.6211 18.2796 21.6211 19.862V20.8743H25.3368V21.2234H21.6211C21.6211 22.6662 21.6329 24.016 21.6565 25.2726L27.2124 25.2377ZM38.5719 20.3507C38.5719 21.7237 38.5955 23.4691 38.6427 25.5868H37.0856C37.1328 24.237 37.1564 22.5731 37.1564 20.5951C37.1564 18.9661 37.1328 17.4535 37.0856 16.0572L33.1929 25.5868H32.7329C32.1667 24.1672 31.282 22.003 30.0788 19.0941C29.371 17.4186 28.9346 16.383 28.7694 15.9874V25.5868H28.4156V15.1147H30.1142C30.6096 16.4644 31.0815 17.6862 31.5297 18.7799C31.9779 19.8504 32.556 21.2118 33.2637 22.864C33.3109 22.9571 33.3581 23.0735 33.4053 23.2131C33.476 23.3295 33.5468 23.4691 33.6176 23.632L37.0856 15.1496V15.1147H38.6427C38.5955 17.2324 38.5719 18.9777 38.5719 20.3507Z" fill="#161616"/>
<path fill-rule="evenodd" clip-rule="evenodd" d="M44.0216 21.6074C43.2431 21.3979 42.6415 21.014 42.2169 20.4555C41.7922 19.897 41.5799 19.2803 41.5799 18.6054C41.5799 18.0236 41.7332 17.4651 42.0399 16.9299C42.3466 16.4179 42.8067 15.999 43.42 15.6732C44.0334 15.3474 44.7766 15.1845 45.6495 15.1845H49.7191C49.6719 16.9531 49.6483 18.6985 49.6483 20.4206C49.6483 22.1194 49.6719 23.8647 49.7191 25.6566H48.1266C48.1738 24.0509 48.1974 22.7593 48.1974 21.7819H45.1894C44.8591 21.8285 44.5643 21.9681 44.3047 22.2008C44.0452 22.4335 43.8447 22.6895 43.7031 22.9688C43.538 23.248 43.3611 23.6204 43.1723 24.0858C43.0072 24.4349 42.8774 24.6908 42.7831 24.8537C42.7123 25.0166 42.6179 25.1446 42.5 25.2377C42.1933 25.6566 41.745 25.866 41.1552 25.866C40.7542 25.866 40.3767 25.7962 40.0228 25.6566C40.3295 25.5402 40.6008 25.3541 40.8367 25.0981C41.0491 24.8421 41.3086 24.4698 41.6153 23.9811C41.9691 23.3527 42.323 22.8408 42.6769 22.4452C43.0072 22.0728 43.4554 21.7936 44.0216 21.6074ZM45.968 15.4987C45.331 15.4987 44.7884 15.6499 44.3401 15.9525C43.8919 16.2317 43.5616 16.6041 43.3493 17.0695C43.1133 17.5349 42.9954 18.0352 42.9954 18.5705C42.9954 19.0359 43.078 19.4781 43.2431 19.897C43.4318 20.3158 43.7031 20.6649 44.057 20.9442C44.3873 21.2234 44.8002 21.3863 45.2956 21.4329C45.4607 21.4329 45.5905 21.4445 45.6849 21.4678H48.1974V19.9319C48.1974 18.3494 48.1856 16.8833 48.162 15.5336L45.968 15.4987ZM8.81066 5.48039C8.81066 7.55153 8.83426 9.29688 8.88144 10.7164H7.32437C7.37155 8.94781 7.39515 7.20246 7.39515 5.48039C7.39515 3.87467 7.37155 2.24568 7.32437 0.593418H1.69769C1.65051 1.94315 1.62692 3.57214 1.62692 5.48039C1.62692 7.55153 1.65051 9.29688 1.69769 10.7164H0.140625C0.187809 8.94781 0.211401 7.20246 0.211401 5.48039C0.211401 3.75831 0.187809 2.0246 0.140625 0.279255H8.88144C8.83426 1.67553 8.81066 3.40924 8.81066 5.48039ZM68.4393 10.7164H66.7407C65.5729 6.91157 62.8834 8.37766 62.6003 7.33046C62.3172 6.28325 64.3343 5.65492 64.3343 4.81716C64.3343 4.0143 63.6265 2.40858 63.4496 2.0246L61.0786 8.5871L60.3001 10.7164H59.9108L63.7327 0.279255H64.4405C64.4405 0.279255 64.9713 1.64063 65.3605 2.79255L65.3959 2.89728C65.3959 2.89728 65.3959 2.90891 65.3959 2.93218C65.5375 3.38597 65.679 3.76995 65.7144 4.0143C65.9268 4.99169 65.7144 5.68983 63.5204 6.5625C63.0957 6.77194 62.848 6.94648 62.9542 7.26064C63.2019 7.92387 66.4222 5.20113 68.4393 10.7164ZM98.6606 0.558511H94.0955C94.7679 2.33876 94.6971 4.18883 94.6971 5.41057C94.6971 7.15592 94.7207 8.92454 94.7679 10.7164H93.2108C93.258 8.92454 93.2816 7.15592 93.2816 5.41057C93.2816 4.1772 93.258 2.55984 93.2108 0.558511H89.2828V0.244349H98.6606V0.558511ZM9.05838 23.9811C9.01119 24.1207 8.92862 24.2487 8.81066 24.365C8.90503 24.2487 8.9876 24.1207 9.05838 23.9811ZM9.09377 23.9462C9.09377 23.9229 9.09377 23.8996 9.09377 23.8763C9.09377 23.8996 9.09377 23.9112 9.09377 23.9112C9.09377 23.9345 9.09377 23.9462 9.09377 23.9462ZM9.12915 23.8065C9.15275 23.76 9.16454 23.7251 9.16454 23.7018C9.16454 23.7483 9.15275 23.7833 9.12915 23.8065Z" fill="#161616"/>
<path fill-rule="evenodd" clip-rule="evenodd" d="M9.19993 23.7367C9.17634 23.76 9.16454 23.7949 9.16454 23.8414C9.14095 23.888 9.11736 23.9345 9.09377 23.9811C9.09377 23.9811 9.09377 23.9927 9.09377 24.016C9.02299 24.1556 8.94042 24.2836 8.84605 24.3999C7.92597 25.4472 5.55498 25.6217 4.24562 25.6566C4.24562 25.6566 4.23383 25.6566 4.21024 25.6566H0.38834C0.435524 23.8647 0.459116 22.1194 0.459116 20.4206C0.459116 18.6985 0.435524 16.9531 0.38834 15.1845H3.67942C3.67942 15.1845 6.08579 15.0449 7.32437 16.0223C7.60747 16.2317 7.74903 16.511 7.78441 16.8251C7.89058 17.6629 7.43054 18.1865 6.89972 18.4658C6.89972 18.489 6.88792 18.5007 6.86433 18.5007C6.86433 18.5007 6.85253 18.5007 6.82894 18.5007C6.68739 18.5938 6.53404 18.6636 6.3689 18.7101C6.32171 18.7334 6.26273 18.7567 6.19196 18.7799C5.87347 18.8846 5.55498 18.9545 5.13032 19.0243C4.42256 19.1639 3.4317 19.5479 3.25476 19.7224C3.25476 19.7457 3.25476 19.7573 3.25476 19.7573C3.07782 19.8969 3.1486 20.0366 3.1486 20.0715C3.18399 20.1762 3.36092 20.2809 3.96252 20.0366C4.74105 19.6875 5.30726 19.6875 5.30726 19.6875C6.68739 19.5828 9.05838 20.0017 9.3061 22.515C9.34148 23.0037 9.30609 23.3876 9.19993 23.7367ZM6.61661 20.9442C5.73192 20.4206 5.05954 20.5602 4.28101 20.7347C3.4317 20.8743 3.07782 20.7696 3.07782 20.7696C2.90088 20.6998 2.72394 20.63 2.65317 20.4206C2.44084 19.8969 2.75933 19.5828 2.75933 19.5828C3.4317 18.6403 6.15657 17.8025 5.97963 16.7902C5.80269 15.7779 4.28101 15.5685 3.85636 15.5336C3.78558 15.5103 3.70301 15.4987 3.60864 15.4987L1.94541 15.5336C1.92182 16.9066 1.91002 18.3843 1.91002 19.9668V21.2932C1.91002 22.736 1.92182 24.0858 1.94541 25.3424H3.36093C4.88261 25.2726 7.14743 24.9934 7.67825 23.7367C8.17368 22.5848 7.5367 21.5027 6.61661 20.9442ZM108.64 8.83145C108.64 8.878 108.628 8.9129 108.605 8.93617C108.581 8.98272 108.557 9.02926 108.534 9.0758C108.534 9.09907 108.534 9.11071 108.534 9.11071C108.463 9.25034 108.38 9.37833 108.286 9.49469C107.366 10.5419 104.995 10.7513 103.721 10.7513C103.697 10.7513 103.686 10.7513 103.686 10.7513H99.8638C99.9109 8.98272 99.9345 7.23737 99.9345 5.5153C99.9345 3.79322 99.9109 2.04787 99.8638 0.279255H103.155C103.155 0.279255 105.526 0.174535 106.764 1.11702C107.048 1.36137 107.189 1.64063 107.224 1.91988C107.331 2.75765 106.906 3.28125 106.34 3.59541C106.316 3.59541 106.304 3.60705 106.304 3.63032C106.139 3.70013 105.986 3.75831 105.844 3.80486C105.774 3.82813 105.715 3.8514 105.667 3.87467C105.349 3.97939 105.03 4.0492 104.606 4.11902C103.898 4.25865 102.907 4.67753 102.73 4.85206C102.553 4.99169 102.589 5.13132 102.589 5.16623C102.659 5.27095 102.801 5.37567 103.403 5.13132C104.216 4.78225 104.747 4.78225 104.747 4.78225C106.127 4.67753 108.534 5.09641 108.782 7.64462C108.817 8.09841 108.782 8.48238 108.64 8.83145ZM106.092 6.0389C105.207 5.5153 104.535 5.68983 103.721 5.82946C102.872 5.96909 102.553 5.86436 102.553 5.86436C102.376 5.82946 102.199 5.72474 102.129 5.5153C101.916 4.99169 102.235 4.67753 102.235 4.67753C102.907 3.73504 105.597 2.89728 105.42 1.88497C105.278 0.872673 103.756 0.663232 103.332 0.628325C103.237 0.628325 103.155 0.628325 103.084 0.628325H101.421C101.397 2.00133 101.385 3.49069 101.385 5.09641V6.38797C101.385 7.83079 101.397 9.18052 101.421 10.4372H102.801C104.323 10.3674 106.587 10.0881 107.154 8.83145C107.649 7.67952 107.012 6.63232 106.092 6.0389ZM74.1014 22.9688V20.2809H74.526V21.4329H76.1893V20.2809H76.6139V22.9688H76.1893V21.7819H74.526V22.9688H74.1014Z" fill="#161616"/>
<path fill-rule="evenodd" clip-rule="evenodd" d="M78.2417 22.6546C77.9586 22.3986 77.8171 22.0612 77.8171 21.6423C77.8171 21.2234 77.9469 20.886 78.2064 20.63C78.4659 20.3507 78.7962 20.2111 79.1972 20.2111C80.1173 20.2111 80.4712 21.014 80.4712 21.6074V21.747H78.2417C78.2771 22.3055 78.7372 22.6895 79.4095 22.6895C79.7162 22.6895 80.0111 22.6081 80.2942 22.4452V22.7942C80.0583 22.9571 79.7398 23.0386 79.3388 23.0386C78.8905 23.0386 78.5248 22.9106 78.2417 22.6546ZM80.0819 21.3979C80.0583 21.1885 79.9758 21.0023 79.8342 20.8394C79.6926 20.6765 79.4803 20.5951 79.1972 20.5951C78.9141 20.5951 78.69 20.6765 78.5248 20.8394C78.3597 21.0023 78.2653 21.1885 78.2417 21.3979H80.0819ZM81.3559 23.7716V22.6197H81.7098C82.0165 22.2241 82.1698 21.5725 82.1698 20.6649V20.2809H84.1869V22.6197H84.7177V23.7716H84.3285V22.9688H81.7452V23.7716H81.3559ZM83.7977 22.6197V20.63H82.5591V20.8045C82.5591 21.5958 82.4293 22.2008 82.1698 22.6197H83.7977ZM85.8148 22.9688V20.2809H87.2657C87.7965 20.2809 88.0796 20.5602 88.0796 20.9791C88.0796 21.2583 87.9734 21.4561 87.7611 21.5725C88.0914 21.6656 88.2565 21.8983 88.2565 22.2706C88.2565 22.6895 87.938 22.9688 87.3718 22.9688H85.8148ZM86.204 21.4329H87.1241C87.478 21.4329 87.6549 21.2932 87.6549 21.0489C87.6549 20.7696 87.478 20.63 87.1241 20.63H86.204V21.4329ZM86.204 22.6546H87.2657C87.6195 22.6546 87.8319 22.4801 87.8319 22.2008C87.8319 21.9565 87.6195 21.7819 87.2657 21.7819H86.204V22.6546ZM89.5305 23.0037V20.3158H89.9198V22.4102L91.6892 20.3158H92.043V23.0037H91.6538V20.9093L89.8844 23.0037H89.5305ZM93.8124 20.3158L94.9802 21.4678V20.3158H95.4049V21.4678L96.5373 20.3158H97.0681L95.7942 21.5725L97.2097 23.0037H96.6435L95.4049 21.7121V23.0037H94.9802V21.7121L93.7063 23.0037H93.1755L94.591 21.5725L93.317 20.3158H93.8124ZM98.2713 23.0037V20.3158H98.696V22.4102L100.43 20.3158H100.819V23.0037H100.395V20.9093L98.6606 23.0037H98.2713ZM102.235 23.0037V20.3158H102.624L103.721 21.5376L104.818 20.3158H105.207V23.0037H104.818V20.8394L103.792 22.0263H103.615L102.624 20.8394V23.0037H102.235ZM107.897 20.246C108.345 20.246 108.699 20.3856 108.958 20.6649C109.242 20.9442 109.383 21.27 109.383 21.6423C109.383 22.0379 109.242 22.3753 108.958 22.6546C108.699 22.9339 108.345 23.0735 107.897 23.0735C107.472 23.0735 107.118 22.9339 106.835 22.6546C106.552 22.3753 106.422 22.0379 106.446 21.6423C106.422 21.27 106.552 20.9442 106.835 20.6649C107.118 20.3856 107.472 20.246 107.897 20.246ZM108.675 20.9093C108.463 20.6998 108.204 20.5951 107.897 20.5951C107.59 20.5951 107.342 20.6998 107.154 20.9093C106.941 21.0954 106.835 21.3398 106.835 21.6423C106.835 21.9448 106.941 22.2008 107.154 22.4102C107.342 22.5964 107.59 22.6895 107.897 22.6895C108.204 22.6895 108.463 22.5964 108.675 22.4102C108.864 22.2008 108.958 21.9448 108.958 21.6423C108.958 21.3398 108.864 21.0954 108.675 20.9093ZM110.799 22.6546C110.539 22.3986 110.409 22.0612 110.409 21.6423C110.409 21.2467 110.539 20.9093 110.799 20.63C111.082 20.374 111.436 20.246 111.86 20.246C112.167 20.246 112.438 20.3042 112.674 20.4206V20.8045C112.438 20.6649 112.191 20.5951 111.931 20.5951C111.601 20.5951 111.329 20.6998 111.117 20.9093C110.905 21.0954 110.799 21.3398 110.799 21.6423C110.799 21.9448 110.905 22.2008 111.117 22.4102C111.329 22.5964 111.601 22.6895 111.931 22.6895C112.214 22.6895 112.485 22.6197 112.745 22.4801V22.8291C112.485 22.992 112.191 23.0735 111.86 23.0735C111.436 23.0735 111.082 22.9339 110.799 22.6546ZM114.621 23.0037V20.6649H113.63V20.3158H116.036V20.6649H115.045V23.0037H114.621ZM117.098 23.0037V20.3158H117.487V21.2234H118.442C119.115 21.2234 119.504 21.5725 119.504 22.0961C119.504 22.6197 119.115 23.0037 118.478 23.0037H117.098ZM117.522 22.6546H118.407C118.832 22.6546 119.079 22.4452 119.079 22.0961C119.079 21.747 118.832 21.5725 118.407 21.5725H117.522V22.6546ZM48.1266 21.4678H70.598V21.7819H48.1266V21.4678Z" fill="#161616"/>
</svg>
