<svg width="87" height="20" viewBox="0 0 87 20" fill="none" xmlns="http://www.w3.org/2000/svg">
<path fill-rule="evenodd" clip-rule="evenodd" d="M11.9089 0.947541C12.3491 1.18215 12.6876 1.49217 12.9246 1.8776C13.1616 2.24628 13.2801 2.64009 13.2801 3.05903C13.2801 3.46122 13.1701 3.83827 12.95 4.19019C12.7299 4.5421 12.3998 4.82699 11.9597 5.04484C11.5196 5.26269 10.9779 5.37162 10.3346 5.37162H8.60794C8.60794 6.07545 8.62487 6.99713 8.65872 8.13667H7.51608C7.54993 6.86307 7.56686 5.60623 7.56686 4.36615C7.56686 3.12606 7.54993 1.86922 7.51608 0.595626H10.3092C10.9356 0.595626 11.4688 0.712931 11.9089 0.947541ZM10.0807 5.14539C10.5547 5.14539 10.9525 5.05322 11.2741 4.86888C11.5957 4.66779 11.8412 4.40804 12.0105 4.08964C12.1798 3.77124 12.2644 3.42771 12.2644 3.05903C12.2644 2.6736 12.1798 2.31331 12.0105 1.97815C11.8243 1.62623 11.5704 1.34973 11.2487 1.14864C10.9271 0.947541 10.5377 0.846994 10.0807 0.846994H8.63333C8.6164 1.81895 8.60794 2.88308 8.60794 4.03937V5.14539H10.0807ZM18.1554 8.28749C17.3259 8.28749 16.598 8.08639 15.9717 7.68421C15.3623 7.29877 14.9052 6.78766 14.6005 6.15086C14.2789 5.51406 14.118 4.85213 14.118 4.16505C14.118 3.52825 14.2535 2.94173 14.5243 2.40548C14.7782 1.85247 15.176 1.4 15.7177 1.04809C16.2594 0.679415 16.9196 0.469942 17.6983 0.419668C17.766 0.419668 17.8761 0.419668 18.0284 0.419668C18.8579 0.419668 19.5774 0.612384 20.1868 0.997815C20.7792 1.4 21.2363 1.91112 21.5579 2.53116C21.8626 3.16796 22.015 3.82989 22.015 4.51697C22.015 5.12025 21.8965 5.68164 21.6595 6.20113C21.4225 6.73739 21.067 7.18985 20.593 7.55852C20.1191 7.91044 19.5435 8.13667 18.8664 8.23722C18.5955 8.27073 18.3585 8.28749 18.1554 8.28749ZM20.009 7.50825C20.3307 7.20661 20.5761 6.82118 20.7454 6.35195C20.8977 5.88273 20.9739 5.37162 20.9739 4.81861C20.9739 4.09802 20.847 3.40257 20.593 2.73225C20.3222 2.0787 19.9413 1.54245 19.4504 1.1235C18.9595 0.72131 18.3839 0.545352 17.7237 0.595626C17.1482 0.629141 16.6742 0.79672 16.3018 1.09836C15.9124 1.4 15.6246 1.79381 15.4384 2.27979C15.2522 2.76577 15.1591 3.29364 15.1591 3.86341C15.1591 4.56724 15.2945 5.24593 15.5654 5.89949C15.8193 6.55305 16.1917 7.08092 16.6826 7.48311C17.1905 7.90206 17.766 8.11153 18.4093 8.11153C18.5278 8.11153 18.6632 8.10315 18.8156 8.08639C19.2896 8.01936 19.6874 7.82665 20.009 7.50825ZM30.0643 6.30168C29.8612 6.82118 29.5141 7.26526 29.0232 7.63393C28.5154 8.00261 27.8552 8.18694 27.0426 8.18694C26.1962 8.18694 25.4599 8.00261 24.8335 7.63393C24.2241 7.28202 23.7671 6.8128 23.4623 6.22627C23.1576 5.63975 23.0053 5.0197 23.0053 4.36615C23.0053 3.69583 23.1576 3.06741 23.4623 2.48089C23.7671 1.89436 24.2241 1.42514 24.8335 1.07323C25.4429 0.704552 26.1708 0.520215 27.0173 0.520215C27.8467 0.520215 28.5154 0.704552 29.0232 1.07323C29.5311 1.4419 29.8696 1.88598 30.0389 2.40548L29.3025 2.43061C29.1671 1.94463 28.9047 1.53407 28.5154 1.19891C28.143 0.863752 27.6605 0.696173 27.068 0.696173C26.4248 0.696173 25.8746 0.855373 25.4175 1.17377C24.9605 1.47541 24.6219 1.88598 24.4019 2.40548C24.1649 2.92497 24.0464 3.47798 24.0464 4.06451C24.0464 4.66779 24.1649 5.24593 24.4019 5.79894C24.6389 6.35195 24.9774 6.8128 25.4175 7.18147C25.8746 7.55014 26.4163 7.75962 27.0426 7.80989C27.1442 7.82665 27.2796 7.83503 27.4489 7.83503C28.0583 7.83503 28.5662 7.68421 28.9724 7.38256C29.3956 7.08092 29.6919 6.72063 29.8612 6.30168H30.0643ZM36.6917 0.821857H33.4161C33.8985 2.0787 33.8731 3.43608 33.8731 4.31587C33.8731 5.55596 33.8901 6.82118 33.9239 8.11153H32.7813C32.8151 6.82118 32.8405 5.55596 32.8574 4.31587C32.8405 3.42771 32.8236 2.26303 32.8067 0.821857H29.9627V0.595626H36.6917V0.821857ZM41.9732 0.922404C42.4303 1.15701 42.7688 1.46703 42.9889 1.85247C43.2259 2.22114 43.3444 2.61495 43.3444 3.0339C43.3444 3.43608 43.2344 3.81314 43.0143 4.16505C42.7942 4.51697 42.4641 4.80185 42.024 5.0197C41.5839 5.23756 41.0422 5.34648 40.3989 5.34648H38.6722C38.6722 6.05031 38.6892 6.972 38.723 8.11153H37.5804C37.6142 6.83793 37.6312 5.58109 37.6312 4.34101C37.6312 3.10093 37.6142 1.84409 37.5804 0.570489H40.3989C41.0083 0.570489 41.5331 0.687794 41.9732 0.922404ZM40.1704 5.12025C40.6274 5.12025 41.0168 5.02808 41.3384 4.84375C41.677 4.64265 41.9224 4.3829 42.0748 4.06451C42.2441 3.74611 42.3287 3.40257 42.3287 3.0339C42.3287 2.64846 42.2441 2.28817 42.0748 1.95301C41.9055 1.61786 41.6516 1.34135 41.313 1.1235C40.9914 0.922404 40.6021 0.821857 40.145 0.821857H38.6976C38.6807 1.79381 38.6722 2.85794 38.6722 4.01423V5.12025H40.1704ZM55.9643 0.570489C55.9305 1.59272 55.9135 2.84956 55.9135 4.34101C55.9135 5.83246 55.9305 7.0893 55.9643 8.11153H54.8217C54.8555 7.17309 54.8724 6.02518 54.8724 4.66779H50.962C50.962 6.02518 50.979 7.17309 51.0128 8.11153H49.8702C49.904 6.83793 49.921 5.58109 49.921 4.34101C49.921 3.10093 49.904 1.84409 49.8702 0.570489H51.0128C50.979 1.86084 50.962 2.90821 50.962 3.71259V4.41642H54.8724V3.71259C54.8724 2.90821 54.8555 1.86084 54.8217 0.570489H55.9643ZM64.0136 6.27654C63.8274 6.8128 63.4804 7.25688 62.9725 7.6088C62.4647 7.97747 61.813 8.1618 61.0173 8.1618C60.154 8.1618 59.4176 7.98585 58.8082 7.63393C58.1819 7.26526 57.7164 6.78766 57.4117 6.20113C57.107 5.61461 56.9546 4.99457 56.9546 4.34101C56.9546 3.6707 57.107 3.05065 57.4117 2.48089C57.7164 1.89436 58.1734 1.41676 58.7828 1.04809C59.3922 0.679415 60.1202 0.495078 60.9666 0.495078C61.813 0.495078 62.4901 0.679415 62.9979 1.04809C63.5058 1.41676 63.8359 1.86085 63.9882 2.38034L63.2519 2.40548C63.1164 1.9195 62.8625 1.50893 62.4901 1.17377C62.1177 0.838615 61.6352 0.671036 61.0427 0.671036C60.3825 0.671036 59.8239 0.830236 59.3669 1.14864C58.9098 1.45028 58.5712 1.86085 58.3512 2.38034C58.1142 2.89983 58.0041 3.45284 58.0211 4.03937C58.0211 4.64265 58.1311 5.2208 58.3512 5.77381C58.5882 6.32682 58.9352 6.78766 59.3922 7.15633C59.8324 7.52501 60.3656 7.73448 60.9919 7.78475C61.0935 7.80151 61.2374 7.80989 61.4236 7.80989C62.0161 7.80989 62.5155 7.65907 62.9218 7.35743C63.345 7.07254 63.6497 6.71225 63.8359 6.27654H64.0136ZM82.7276 8.26235C81.8982 8.26235 81.1787 8.06126 80.5693 7.65907C79.9599 7.27364 79.4944 6.76252 79.1727 6.12572C78.8511 5.48892 78.6903 4.82699 78.6903 4.13992C78.6903 3.50312 78.8257 2.90821 79.0966 2.3552C79.3674 1.81895 79.7652 1.37487 80.29 1.02295C80.8317 0.654278 81.4919 0.444805 82.2706 0.394531C82.3383 0.394531 82.4483 0.394531 82.6007 0.394531C83.4302 0.394531 84.1496 0.587247 84.759 0.972678C85.3684 1.35811 85.8255 1.86922 86.1302 2.50602C86.4518 3.12606 86.6126 3.788 86.6126 4.49183C86.6126 5.07836 86.4941 5.63975 86.2571 6.176C86.0202 6.71225 85.6647 7.15633 85.1907 7.50825C84.7167 7.87692 84.1327 8.10315 83.4386 8.18694C83.1678 8.23722 82.9308 8.26235 82.7276 8.26235ZM84.5813 7.48311C84.9198 7.16471 85.1653 6.7709 85.3176 6.30168C85.47 5.83246 85.5462 5.32972 85.5462 4.79347C85.5462 4.07288 85.4192 3.37743 85.1653 2.70712C84.9114 2.0368 84.5305 1.50055 84.0226 1.09836C83.5317 0.696173 82.9562 0.520215 82.296 0.570489C81.7373 0.604005 81.2634 0.771583 80.874 1.07323C80.4847 1.37487 80.1969 1.76868 80.0107 2.25466C79.8245 2.74063 79.7314 3.26851 79.7314 3.83827C79.7314 4.5421 79.8668 5.2208 80.1376 5.87436C80.4085 6.52791 80.7894 7.05579 81.2803 7.45797C81.7712 7.87692 82.3383 8.08639 82.9816 8.08639C83.117 8.08639 83.2524 8.06964 83.3878 8.03612C83.8618 7.98585 84.2596 7.80151 84.5813 7.48311ZM11.9851 11.6558C12.4252 11.8737 12.7638 12.1753 13.0008 12.5607C13.2208 12.9294 13.3309 13.3316 13.3309 13.7673C13.3309 14.1695 13.2208 14.5466 13.0008 14.8985C12.7807 15.2504 12.4506 15.5353 12.0105 15.7531C11.5704 15.971 11.0287 16.0799 10.3854 16.0799H8.65872C8.65872 16.7837 8.67565 17.697 8.70951 18.8198H7.56686C7.61765 17.5462 7.64304 16.2894 7.64304 15.0493C7.64304 13.8092 7.61765 12.5607 7.56686 11.3039H10.3854C10.9948 11.3039 11.528 11.4212 11.9851 11.6558ZM10.1569 15.8537C10.6139 15.8537 11.0117 15.7531 11.3503 15.552C11.6719 15.3509 11.9089 15.0912 12.0613 14.7728C12.2306 14.4544 12.3152 14.1108 12.3152 13.7422C12.3152 13.3735 12.2306 13.0132 12.0613 12.6613C11.892 12.3261 11.6465 12.0496 11.3249 11.8318C10.9863 11.6307 10.5885 11.5301 10.1315 11.5301H8.70951C8.67565 12.5189 8.65872 13.5914 8.65872 14.7476V15.8537H10.1569ZM19.425 18.5684V18.8198H14.3212C14.355 17.5462 14.372 16.2894 14.372 15.0493C14.372 13.8092 14.355 12.5607 14.3212 11.3039H19.1457V11.5301H15.4384C15.4215 12.5021 15.413 13.5578 15.413 14.6974V15.4263H18.0792V15.6777H15.413C15.413 16.7167 15.4215 17.6887 15.4384 18.5936L19.425 18.5684ZM27.5759 15.0493C27.5759 16.038 27.5928 17.2948 27.6267 18.8198H26.5094C26.5433 17.8479 26.5602 16.6497 26.5602 15.2252C26.5602 14.0522 26.5433 12.9629 26.5094 11.9575L23.7163 18.8198H23.3862C22.9799 17.7976 22.3451 16.2391 21.4818 14.1444C20.9739 12.9378 20.6607 12.1921 20.5423 11.9072V18.8198H20.2883V11.2788H21.5072C21.8626 12.2507 22.2012 13.1305 22.5228 13.9181C22.8445 14.689 23.2592 15.6693 23.7671 16.8591C23.8009 16.9262 23.8348 17.01 23.8686 17.1105C23.9194 17.1943 23.9702 17.2948 24.021 17.4121L26.5094 11.3039V11.2788H27.6267C27.5928 12.8037 27.5759 14.0606 27.5759 15.0493Z" fill="#161616"/>
<path fill-rule="evenodd" clip-rule="evenodd" d="M31.4863 15.9542C30.9276 15.8034 30.496 15.5269 30.1913 15.1247C29.8866 14.7225 29.7342 14.2784 29.7342 13.7925C29.7342 13.3735 29.8442 12.9713 30.0643 12.5859C30.2844 12.2172 30.6145 11.9156 31.0546 11.681C31.4947 11.4463 32.028 11.329 32.6543 11.329H35.5744C35.5406 12.6026 35.5236 13.8595 35.5236 15.0996C35.5236 16.3229 35.5406 17.5797 35.5744 18.8701H34.4318C34.4656 17.7138 34.4825 16.7837 34.4825 16.0799H32.3242C32.0872 16.1134 31.8756 16.214 31.6894 16.3815C31.5032 16.5491 31.3593 16.7335 31.2577 16.9345C31.1392 17.1356 31.0123 17.4038 30.8769 17.7389C30.7584 17.9903 30.6653 18.1746 30.5975 18.2919C30.5468 18.4092 30.479 18.5014 30.3944 18.5684C30.1743 18.8701 29.8527 19.0209 29.4295 19.0209C29.1417 19.0209 28.8709 18.9706 28.617 18.8701C28.837 18.7863 29.0317 18.6522 29.201 18.4679C29.3533 18.2836 29.5395 18.0154 29.7596 17.6635C30.0135 17.2111 30.2674 16.8424 30.5214 16.5575C30.7584 16.2894 31.08 16.0883 31.4863 15.9542ZM32.8828 11.5553C32.4258 11.5553 32.0364 11.6642 31.7148 11.8821C31.3932 12.0831 31.1562 12.3513 31.0038 12.6864C30.8345 13.0216 30.7499 13.3819 30.7499 13.7673C30.7499 14.1025 30.8091 14.4209 30.9276 14.7225C31.0631 15.0242 31.2577 15.2755 31.5117 15.4766C31.7487 15.6777 32.0449 15.795 32.4004 15.8285C32.5189 15.8285 32.612 15.8369 32.6797 15.8537H34.4825V14.7476C34.4825 13.6081 34.4741 12.5524 34.4572 11.5804L32.8828 11.5553ZM6.22108 4.34101C6.22108 5.83246 6.23801 7.0893 6.27186 8.11153H5.15461C5.18846 6.83793 5.20539 5.58109 5.20539 4.34101C5.20539 3.18472 5.18846 2.01167 5.15461 0.821857H1.11725C1.0834 1.79381 1.06647 2.96686 1.06647 4.34101C1.06647 5.83246 1.0834 7.0893 1.11725 8.11153H0C0.0338562 6.83793 0.0507843 5.58109 0.0507843 4.34101C0.0507843 3.10093 0.0338562 1.85247 0 0.595626H6.27186C6.23801 1.6011 6.22108 2.84956 6.22108 4.34101ZM49.0069 8.11153H47.788C46.9501 5.37162 45.0203 6.42737 44.8172 5.67326C44.614 4.91916 46.0614 4.46669 46.0614 3.86341C46.0614 3.28526 45.5535 2.12897 45.4266 1.85247L43.7253 6.57819L43.1667 8.11153H42.8874L45.6297 0.595626H46.1375C46.1375 0.595626 46.5184 1.57596 46.7977 2.40548L46.8231 2.48089C46.8231 2.48089 46.8231 2.48927 46.8231 2.50602C46.9247 2.8328 47.0263 3.10931 47.0517 3.28526C47.204 3.98909 47.0517 4.49183 45.4773 5.12025C45.1726 5.27107 44.9949 5.39676 45.0711 5.62299C45.2488 6.10059 47.5595 4.13992 49.0069 8.11153ZM70.6918 0.79672H67.4162C67.8986 2.0787 67.8478 3.41095 67.8478 4.29074C67.8478 5.54758 67.8648 6.82118 67.8986 8.11153H66.7814C66.8152 6.82118 66.8321 5.54758 66.8321 4.29074C66.8321 3.40257 66.8152 2.2379 66.7814 0.79672H63.9628V0.570489H70.6918V0.79672ZM6.39882 17.6635C6.36497 17.7641 6.30572 17.8562 6.22108 17.94C6.28879 17.8562 6.34804 17.7641 6.39882 17.6635ZM6.42421 17.6384C6.42421 17.6216 6.42421 17.6049 6.42421 17.5881C6.42421 17.6049 6.42421 17.6132 6.42421 17.6132C6.42421 17.63 6.42421 17.6384 6.42421 17.6384ZM6.44961 17.5378C6.46654 17.5043 6.475 17.4792 6.475 17.4624C6.475 17.4959 6.46654 17.5211 6.44961 17.5378Z" fill="#161616"/>
<path fill-rule="evenodd" clip-rule="evenodd" d="M6.50039 17.4876C6.48346 17.5043 6.475 17.5295 6.475 17.563C6.45807 17.5965 6.44114 17.63 6.42422 17.6635C6.42422 17.6635 6.42422 17.6719 6.42422 17.6887C6.37343 17.7892 6.31418 17.8814 6.24647 17.9652C5.58627 18.7193 3.885 18.8449 2.94549 18.8701C2.94549 18.8701 2.93703 18.8701 2.9201 18.8701H0.177745C0.211601 17.5797 0.228529 16.3229 0.228529 15.0996C0.228529 13.8595 0.211601 12.6026 0.177745 11.329H2.53922C2.53922 11.329 4.26588 11.2285 5.15461 11.9323C5.35774 12.0831 5.45931 12.2842 5.48471 12.5105C5.56088 13.1138 5.23078 13.4908 4.8499 13.6919C4.8499 13.7087 4.84144 13.717 4.82451 13.717C4.82451 13.717 4.81605 13.717 4.79912 13.717C4.69755 13.7841 4.58752 13.8343 4.46902 13.8679C4.43516 13.8846 4.39284 13.9014 4.34206 13.9181C4.11353 13.9935 3.885 14.0438 3.58029 14.0941C3.07245 14.1946 2.36147 14.4711 2.23451 14.5968C2.23451 14.6136 2.23451 14.622 2.23451 14.622C2.10755 14.7225 2.15833 14.8231 2.15833 14.8482C2.18373 14.9236 2.31069 14.999 2.74235 14.8231C3.30098 14.5717 3.70725 14.5717 3.70725 14.5717C4.69755 14.4963 6.39882 14.7979 6.57657 16.6078C6.60196 16.9597 6.57657 17.2362 6.50039 17.4876ZM4.64676 15.4766C4.01196 15.0996 3.52951 15.2001 2.97088 15.3258C2.36147 15.4263 2.10755 15.3509 2.10755 15.3509C1.98059 15.3007 1.85363 15.2504 1.80284 15.0996C1.65049 14.7225 1.87902 14.4963 1.87902 14.4963C2.36147 13.8176 4.31667 13.2143 4.18971 12.4853C4.06275 11.7564 2.97088 11.6055 2.66618 11.5804C2.61539 11.5637 2.55614 11.5553 2.48843 11.5553L1.295 11.5804C1.27807 12.5691 1.26961 13.6332 1.26961 14.7728V15.728C1.26961 16.767 1.27807 17.7389 1.295 18.6439H2.31069C3.40255 18.5936 5.02765 18.3925 5.40853 17.4876C5.76402 16.658 5.30696 15.8788 4.64676 15.4766ZM77.8523 6.75414C77.8523 6.78766 77.8439 6.8128 77.827 6.82955C77.81 6.86307 77.7931 6.89659 77.7762 6.9301C77.7762 6.94686 77.7762 6.95524 77.7762 6.95524C77.7254 7.05579 77.6661 7.14795 77.5984 7.23174C76.9382 7.98585 75.237 8.13667 74.3228 8.13667C74.3059 8.13667 74.2974 8.13667 74.2974 8.13667H71.5551C71.589 6.86307 71.6059 5.60623 71.6059 4.36615C71.6059 3.12606 71.589 1.86922 71.5551 0.595626H73.9166C73.9166 0.595626 75.6178 0.520215 76.5066 1.19891C76.7097 1.37487 76.8113 1.57596 76.8367 1.77706C76.9128 2.38034 76.6081 2.75739 76.2019 2.98362C76.1849 2.98362 76.1765 2.992 76.1765 3.00876C76.058 3.05903 75.9479 3.10093 75.8464 3.13444C75.7956 3.1512 75.7533 3.16796 75.7194 3.18472C75.4909 3.26013 75.2623 3.3104 74.9576 3.36067C74.4498 3.46122 73.7388 3.76286 73.6119 3.88855C73.4849 3.98909 73.5103 4.08964 73.5103 4.11478C73.5611 4.19019 73.6626 4.2656 74.0943 4.08964C74.6783 3.83827 75.0592 3.83827 75.0592 3.83827C76.0495 3.76286 77.7762 4.06451 77.9539 5.89949C77.9793 6.22627 77.9539 6.50278 77.8523 6.75414ZM76.0241 4.7432C75.3893 4.36615 74.9069 4.49183 74.3228 4.59238C73.7134 4.69293 73.4849 4.61752 73.4849 4.61752C73.3579 4.59238 73.231 4.51697 73.1802 4.36615C73.0278 3.98909 73.2564 3.76286 73.2564 3.76286C73.7388 3.08417 75.6686 2.48089 75.5417 1.75192C75.4401 1.02295 74.3482 0.872131 74.0435 0.846994C73.9758 0.846994 73.9166 0.846994 73.8658 0.846994H72.6723C72.6554 1.83571 72.647 2.90821 72.647 4.06451V4.99457C72.647 6.03356 72.6554 7.00551 72.6723 7.91044H73.6626C74.7545 7.86016 76.3796 7.65907 76.7859 6.75414C77.1414 5.92463 76.6843 5.17053 76.0241 4.7432ZM53.0696 16.9345V14.999H53.3743V15.8285H54.5677V14.999H54.8724V16.9345H54.5677V16.0799H53.3743V16.9345H53.0696Z" fill="#161616"/>
<path fill-rule="evenodd" clip-rule="evenodd" d="M56.0405 16.7083C55.8373 16.524 55.7358 16.281 55.7358 15.9794C55.7358 15.6777 55.8289 15.4347 56.0151 15.2504C56.2013 15.0493 56.4383 14.9487 56.7261 14.9487C57.3863 14.9487 57.6402 15.5269 57.6402 15.9542V16.0548H56.0405C56.0659 16.457 56.396 16.7335 56.8784 16.7335C57.0985 16.7335 57.3101 16.6748 57.5132 16.5575V16.8089C57.3439 16.9262 57.1154 16.9848 56.8276 16.9848C56.506 16.9848 56.2436 16.8927 56.0405 16.7083ZM57.3609 15.8034C57.3439 15.6526 57.2847 15.5185 57.1831 15.4012C57.0816 15.2839 56.9292 15.2252 56.7261 15.2252C56.5229 15.2252 56.3621 15.2839 56.2436 15.4012C56.1251 15.5185 56.0574 15.6526 56.0405 15.8034H57.3609ZM58.275 17.5127V16.6832H58.5289C58.749 16.3983 58.859 15.9291 58.859 15.2755V14.999H60.3064V16.6832H60.6872V17.5127H60.4079V16.9345H58.5543V17.5127H58.275ZM60.0271 16.6832V15.2504H59.1383V15.3761C59.1383 15.9458 59.0452 16.3815 58.859 16.6832H60.0271ZM61.4744 16.9345V14.999H62.5155C62.8964 14.999 63.0995 15.2001 63.0995 15.5018C63.0995 15.7028 63.0233 15.8453 62.871 15.9291C63.108 15.9961 63.2265 16.1637 63.2265 16.4318C63.2265 16.7335 62.9979 16.9345 62.5917 16.9345H61.4744ZM61.7537 15.8285H62.4139C62.6678 15.8285 62.7948 15.728 62.7948 15.552C62.7948 15.3509 62.6678 15.2504 62.4139 15.2504H61.7537V15.8285ZM61.7537 16.7083H62.5155C62.7694 16.7083 62.9218 16.5826 62.9218 16.3815C62.9218 16.2056 62.7694 16.0799 62.5155 16.0799H61.7537V16.7083ZM64.1406 16.9597V15.0242H64.4199V16.5324L65.6895 15.0242H65.9434V16.9597H65.6641V15.4515L64.3945 16.9597H64.1406ZM67.213 15.0242L68.051 15.8537V15.0242H68.3557V15.8537L69.1682 15.0242H69.5491L68.635 15.9291L69.6507 16.9597H69.2444L68.3557 16.0296V16.9597H68.051V16.0296L67.1369 16.9597H66.756L67.7717 15.9291L66.8575 15.0242H67.213ZM70.4124 16.9597V15.0242H70.7171V16.5324L71.9614 15.0242H72.2407V16.9597H71.936V15.4515L70.6918 16.9597H70.4124ZM73.2564 16.9597V15.0242H73.5357L74.3228 15.9039L75.11 15.0242H75.3893V16.9597H75.11V15.4012L74.3736 16.2559H74.2467L73.5357 15.4012V16.9597H73.2564ZM77.3191 14.9739C77.6407 14.9739 77.8947 15.0744 78.0809 15.2755C78.284 15.4766 78.3856 15.7112 78.3856 15.9794C78.3856 16.2642 78.284 16.5072 78.0809 16.7083C77.8947 16.9094 77.6407 17.01 77.3191 17.01C77.0144 17.01 76.7605 16.9094 76.5573 16.7083C76.3542 16.5072 76.2611 16.2642 76.278 15.9794C76.2611 15.7112 76.3542 15.4766 76.5573 15.2755C76.7605 15.0744 77.0144 14.9739 77.3191 14.9739ZM77.8777 15.4515C77.7254 15.3007 77.5392 15.2252 77.3191 15.2252C77.099 15.2252 76.9213 15.3007 76.7859 15.4515C76.6335 15.5855 76.5573 15.7615 76.5573 15.9794C76.5573 16.1972 76.6335 16.3815 76.7859 16.5324C76.9213 16.6664 77.099 16.7335 77.3191 16.7335C77.5392 16.7335 77.7254 16.6664 77.8777 16.5324C78.0132 16.3815 78.0809 16.1972 78.0809 15.9794C78.0809 15.7615 78.0132 15.5855 77.8777 15.4515ZM79.4013 16.7083C79.2151 16.524 79.1219 16.281 79.1219 15.9794C79.1219 15.6945 79.2151 15.4515 79.4013 15.2504C79.6044 15.066 79.8583 14.9739 80.163 14.9739C80.3831 14.9739 80.5778 15.0158 80.747 15.0996V15.3761C80.5778 15.2755 80.4 15.2252 80.2138 15.2252C79.9768 15.2252 79.7821 15.3007 79.6298 15.4515C79.4774 15.5855 79.4013 15.7615 79.4013 15.9794C79.4013 16.1972 79.4774 16.3815 79.6298 16.5324C79.7821 16.6664 79.9768 16.7335 80.2138 16.7335C80.417 16.7335 80.6116 16.6832 80.7978 16.5826V16.834C80.6116 16.9513 80.4 17.01 80.163 17.01C79.8583 17.01 79.6044 16.9094 79.4013 16.7083ZM82.1436 16.9597V15.2755H81.4326V15.0242H83.1593V15.2755H82.4483V16.9597H82.1436ZM83.9211 16.9597V15.0242H84.2004V15.6777H84.886C85.3684 15.6777 85.6477 15.9291 85.6477 16.3061C85.6477 16.6832 85.3684 16.9597 84.9114 16.9597H83.9211ZM84.2258 16.7083H84.8606C85.1653 16.7083 85.343 16.5575 85.343 16.3061C85.343 16.0548 85.1653 15.9291 84.8606 15.9291H84.2258V16.7083ZM34.4318 15.8537H50.5558V16.0799H34.4318V15.8537Z" fill="#161616"/>
</svg>
