<svg width="19" height="19" viewBox="0 0 19 19" fill="none" xmlns="http://www.w3.org/2000/svg">
<circle cx="9.5" cy="9.5" r="9.5" fill="#1CB8AE"/>
<path d="M13.6539 5.12466C13.5703 5.06935 13.4768 5.03137 13.3788 5.0129C13.2807 4.99442 13.1801 4.99581 13.0825 5.01698C12.985 5.03815 12.8926 5.07869 12.8104 5.13628C12.7283 5.19388 12.6581 5.2674 12.6039 5.35264L8.34944 12.0349L6.27461 10.0801C6.20141 10.0111 6.11559 9.9575 6.02206 9.92232C5.92853 9.88715 5.82911 9.87109 5.72949 9.87507C5.52829 9.88309 5.33847 9.97224 5.20177 10.1229C5.06507 10.2735 4.9927 10.4733 5.00058 10.6784C5.00846 10.8834 5.09594 11.0768 5.24378 11.2161L7.96803 13.7826C7.96803 13.7826 8.04624 13.8512 8.08243 13.8752C8.16607 13.9306 8.2596 13.9686 8.35766 13.9871C8.45573 14.0056 8.55641 14.0042 8.65395 13.983C8.7515 13.9619 8.84399 13.9213 8.92614 13.8637C9.0083 13.8061 9.0785 13.7325 9.13275 13.6472L13.8777 6.19466C13.9319 6.10944 13.9692 6.01416 13.9873 5.91426C14.0055 5.81436 14.0041 5.71179 13.9833 5.61243C13.9626 5.51307 13.9228 5.41885 13.8663 5.33515C13.8097 5.25146 13.7376 5.17993 13.6539 5.12466Z" fill="white"/>
</svg>
