<svg width="34" height="34" viewBox="0 0 34 34" fill="none" xmlns="http://www.w3.org/2000/svg">
<g clip-path="url(#clip0_1_601)">
<path d="M17 0C12.4923 0 8.16531 1.79217 4.98047 4.97914C1.79234 8.16737 0.000883123 12.4912 0 17C0 21.5069 1.79297 25.8339 4.98047 29.0209C8.16531 32.2078 12.4923 34 17 34C21.5077 34 25.8347 32.2078 29.0195 29.0209C32.207 25.8339 34 21.5069 34 17C34 12.4931 32.207 8.16611 29.0195 4.97914C25.8347 1.79217 21.5077 0 17 0Z" fill="url(#paint0_linear_1_601)"/>
<path d="M7.69483 16.8209C12.6514 14.6619 15.9558 13.2384 17.608 12.5507C22.3308 10.587 23.3109 10.2459 23.9511 10.2344C24.0919 10.2321 24.4053 10.2669 24.6098 10.4322C24.7798 10.5717 24.8276 10.7603 24.8515 10.8927C24.8728 11.025 24.902 11.3265 24.8781 11.5618C24.6231 14.2499 23.5155 20.7732 22.9523 23.784C22.7159 25.058 22.2458 25.4851 21.7915 25.5268C20.8034 25.6176 20.0544 24.8744 19.0981 24.2478C17.6026 23.2668 16.758 22.6564 15.305 21.6994C13.6262 20.5933 14.7153 19.9853 15.6715 18.9919C15.9212 18.7318 20.2722 14.7753 20.3545 14.4165C20.3651 14.3716 20.3758 14.2043 20.2748 14.1161C20.1765 14.0276 20.0305 14.0579 19.9242 14.0818C19.7728 14.1158 17.3848 15.6957 12.7523 18.8213C12.075 19.2873 11.4614 19.5144 10.9089 19.5024C10.3033 19.4894 9.13452 19.1592 8.26592 18.8771C7.20342 18.531 6.35608 18.348 6.43045 17.7602C6.46764 17.4542 6.88998 17.141 7.69483 16.8209Z" fill="white"/>
</g>
<defs>
<linearGradient id="paint0_linear_1_601" x1="17" y1="0" x2="17" y2="34" gradientUnits="userSpaceOnUse">
<stop stop-color="#2AABEE"/>
<stop offset="1" stop-color="#229ED9"/>
</linearGradient>
<clipPath id="clip0_1_601">
<rect width="34" height="34" fill="white"/>
</clipPath>
</defs>
</svg>
