<svg width="35" height="34" viewBox="0 0 35 34" fill="none" xmlns="http://www.w3.org/2000/svg">
<circle cx="17.4843" cy="17.0644" r="16.9355" fill="#7460F3"/>
<path d="M17.5528 6.64516C15.6803 6.66662 11.6544 6.95872 9.40268 8.91967C7.72773 10.4951 7.14292 12.8243 7.07438 15.7044C7.0175 18.5742 6.94896 23.9635 12.4215 25.4309V27.666C12.4215 27.666 12.3873 28.5603 13.01 28.7437C13.7771 28.9742 14.2139 28.2862 14.9431 27.5469L16.303 26.0871C20.0474 26.3827 22.9153 25.7016 23.2456 25.6005C24.0054 25.37 28.285 24.8509 28.9843 19.4609C29.7018 13.8944 28.635 10.3871 26.7093 8.80061H26.6976C26.1164 8.29255 23.7808 6.67701 18.5628 6.65901C18.5628 6.65901 18.1756 6.63478 17.5528 6.64516ZM17.617 8.21018C18.1486 8.20672 18.4716 8.22818 18.4716 8.22818C22.8883 8.23926 24.9964 9.5011 25.4937 9.9261C27.1154 11.2454 27.9511 14.4073 27.3393 19.0546C26.7581 23.5607 23.2872 23.8458 22.6448 24.0403C22.3713 24.1234 19.8454 24.7145 16.6632 24.52C16.6632 24.52 14.2934 27.2348 13.5525 27.9339C13.4351 28.0564 13.298 28.0924 13.2105 28.0744C13.0851 28.0453 13.0472 27.8979 13.0545 27.6958L13.0771 23.9864C8.43578 22.7681 8.70922 18.1714 8.75881 15.7702C8.81568 13.369 9.29038 11.4046 10.7036 10.0742C12.606 8.44137 16.0244 8.22126 17.6155 8.21018H17.617ZM17.967 10.6107C17.9288 10.6103 17.8909 10.6171 17.8555 10.6307C17.8201 10.6443 17.7879 10.6644 17.7607 10.6899C17.7335 10.7154 17.7119 10.7457 17.6971 10.7792C17.6823 10.8126 17.6747 10.8485 17.6746 10.8848C17.6746 11.0398 17.8073 11.1623 17.967 11.1623C18.69 11.1493 19.4086 11.2722 20.0813 11.5241C20.7539 11.7759 21.3675 12.1517 21.8864 12.6298C22.9459 13.6064 23.4622 14.9188 23.4819 16.6347C23.4819 16.7863 23.6109 16.9123 23.7743 16.9123V16.9012C23.8512 16.9014 23.9252 16.8727 23.98 16.8213C24.0347 16.77 24.0659 16.7002 24.0667 16.6271C24.1021 15.8194 23.9641 15.0134 23.6611 14.2579C23.3581 13.5024 22.8965 12.8133 22.3042 12.2324C21.1499 11.1616 19.6872 10.61 17.967 10.61V10.6107ZM14.1234 11.2454C13.9171 11.2168 13.7065 11.2561 13.527 11.3568H13.5117C13.0948 11.5888 12.7192 11.882 12.3989 12.2255C12.1328 12.5176 11.9884 12.8132 11.9505 13.0977C11.9279 13.2673 11.9432 13.4368 11.9964 13.5988L12.0154 13.6099C12.3151 14.446 12.7066 15.2504 13.185 16.0076C13.8012 17.0714 14.5595 18.0553 15.4411 18.9348L15.4673 18.9708L15.5089 18.9999L15.5352 19.029L15.5658 19.0539C16.4957 19.8932 17.5347 20.6164 18.6575 21.2059C19.9409 21.869 20.7197 22.1825 21.1871 22.3127V22.3196C21.3242 22.359 21.4489 22.377 21.5743 22.377C21.9727 22.3493 22.3498 22.1958 22.6455 21.941C23.0057 21.6369 23.3111 21.2789 23.5497 20.8812V20.8743C23.7735 20.4742 23.6977 20.0956 23.3747 19.8395C22.7277 19.3027 22.0282 18.8259 21.2855 18.4157C20.7882 18.1596 20.2829 18.3146 20.078 18.5742L19.6412 19.0968C19.4174 19.3564 19.0105 19.3204 19.0105 19.3204L18.9988 19.3273C15.9647 18.5915 15.1553 15.6753 15.1553 15.6753C15.1553 15.6753 15.1173 15.2787 15.3981 15.0766L15.945 14.6585C16.2067 14.4564 16.389 13.9774 16.1083 13.5047C15.6791 12.7988 15.1779 12.1345 14.612 11.5216C14.4883 11.3771 14.3147 11.2788 14.122 11.244L14.1234 11.2454ZM18.4716 12.0677C18.0844 12.0677 18.0844 12.6228 18.4753 12.6228C18.9567 12.6302 19.4319 12.7277 19.8737 12.9095C20.3155 13.0913 20.7152 13.354 21.05 13.6826C21.3554 14.0024 21.5901 14.3771 21.7402 14.7845C21.8902 15.192 21.9526 15.6239 21.9236 16.0547C21.9249 16.1276 21.9563 16.1971 22.0109 16.2483C22.0656 16.2995 22.1392 16.3284 22.216 16.3288L22.2277 16.3433C22.305 16.3428 22.3791 16.3133 22.4338 16.2614C22.4885 16.2095 22.5195 16.1392 22.5201 16.0657C22.5463 14.9659 22.1861 14.0432 21.4795 13.3039C20.7693 12.5647 19.7783 12.1501 18.5132 12.0677H18.4716ZM18.9507 13.56C18.5518 13.549 18.5365 14.1152 18.9317 14.1262C19.8928 14.1733 20.3595 14.6343 20.4207 15.5826C20.4221 15.6546 20.453 15.7232 20.507 15.7738C20.561 15.8244 20.6336 15.8529 20.7095 15.8532H20.7212C20.7601 15.8517 20.7984 15.8427 20.8337 15.8269C20.869 15.8112 20.9007 15.7889 20.9268 15.7613C20.9529 15.7338 20.973 15.7016 20.9859 15.6667C20.9988 15.6317 21.0042 15.5947 21.0019 15.5577C20.9333 14.3214 20.2231 13.6251 18.9623 13.5607H18.9507V13.56Z" fill="white"/>
</svg>
