<svg width="35" height="35" viewBox="0 0 35 35" fill="none" xmlns="http://www.w3.org/2000/svg">
<path d="M0.145873 17.3423C0.145023 20.3985 0.947182 23.3827 2.47247 26.013L0 35L9.23843 32.5885C11.7937 33.9733 14.6566 34.6989 17.5659 34.6991H17.5736C27.1778 34.6991 34.9959 26.9189 35 17.356C35.0018 12.7221 33.1908 8.36464 29.9003 5.08635C26.6103 1.80833 22.2348 0.00211485 17.5729 0C7.96749 0 0.149838 7.77981 0.145873 17.3423Z" fill="url(#paint0_linear_1_600)"/>
<path d="M0.145873 17.3423C0.145023 20.3985 0.947182 23.3827 2.47247 26.013L0 35L9.23843 32.5885C11.7839 33.9702 14.6497 34.698 17.5659 34.6991H17.5736C27.1778 34.6991 34.9959 26.9189 35 17.356C35.0018 12.7221 33.1908 8.36464 29.9003 5.08635C26.6103 1.80833 22.2348 0.00211485 17.5729 0C7.96749 0 0.149838 7.77981 0.145873 17.3423ZM5.64785 25.5602L5.30291 25.015C3.85287 22.7197 3.08752 20.0672 3.08861 17.3435C3.09176 9.39546 9.58918 2.92906 17.5788 2.92906C21.4479 2.9307 25.0841 4.43225 27.819 7.15661C30.5538 9.88124 32.0586 13.5031 32.0577 17.3552C32.0541 25.3033 25.5566 31.7705 17.5733 31.7705H17.5675C14.9681 31.7692 12.4187 31.0742 10.1954 29.7609L9.66629 29.4485L4.18414 30.8794L5.64785 25.5602Z" fill="url(#paint1_linear_1_600)"/>
<path d="M13.4255 9.9807C13.1199 9.24838 12.7983 9.2336 12.5077 9.22076C12.2697 9.20971 11.9977 9.21054 11.7259 9.21054C11.4539 9.21054 11.0119 9.32088 10.6383 9.76072C10.2643 10.201 9.21053 11.2649 9.21053 13.4287C9.21053 15.5927 10.6723 17.6838 10.876 17.9776C11.08 18.2708 13.6979 22.8533 17.844 24.6163C21.2897 26.0813 21.9909 25.79 22.7388 25.7165C23.4867 25.6433 25.1522 24.6529 25.492 23.6259C25.832 22.599 25.832 21.7187 25.7301 21.5348C25.6281 21.3515 25.3561 21.2415 24.9482 21.0216C24.5401 20.8016 22.5347 19.7376 22.1609 19.5908C21.7869 19.4442 21.515 19.371 21.243 19.8114C20.9709 20.2511 20.1898 21.2415 19.9517 21.5348C19.7139 21.8288 19.4758 21.8654 19.068 21.6454C18.6598 21.4247 17.3461 20.9609 15.7876 19.4627C14.575 18.2969 13.7563 16.8572 13.5183 16.4168C13.2804 15.9771 13.4929 15.7388 13.6974 15.5196C13.8807 15.3225 14.1054 15.006 14.3096 14.7493C14.513 14.4924 14.5809 14.3092 14.7169 14.0159C14.853 13.7223 14.7849 13.4654 14.6831 13.2454C14.5809 13.0254 13.7882 10.8503 13.4255 9.9807Z" fill="white"/>
<defs>
<linearGradient id="paint0_linear_1_600" x1="17.5" y1="35" x2="17.5" y2="0" gradientUnits="userSpaceOnUse">
<stop stop-color="#1FAF38"/>
<stop offset="1" stop-color="#60D669"/>
</linearGradient>
<linearGradient id="paint1_linear_1_600" x1="17.5" y1="35" x2="17.5" y2="0" gradientUnits="userSpaceOnUse">
<stop stop-color="#ECECEC"/>
<stop offset="1" stop-color="white"/>
</linearGradient>
</defs>
</svg>
