<svg width="19" height="19" viewBox="0 0 19 19" fill="none" xmlns="http://www.w3.org/2000/svg">
<path d="M0.0791881 9.41439C0.0787268 11.0735 0.514185 12.6935 1.3422 14.1214L0 19L5.01515 17.6909C6.40227 18.4427 7.95644 18.8366 9.53579 18.8367H9.53994C14.7537 18.8367 18.9978 14.6131 19 9.42182C19.001 6.90627 18.0178 4.5408 16.2316 2.76116C14.4456 0.981667 12.0703 0.00114806 9.53956 0C4.32521 0 0.0813408 4.22333 0.0791881 9.41439Z" fill="url(#paint0_linear_1_493)"/>
<path d="M0.0791881 9.41439C0.0787268 11.0735 0.514185 12.6935 1.3422 14.1214L0 19L5.01515 17.6909C6.39695 18.4409 7.9527 18.8361 9.53579 18.8367H9.53994C14.7537 18.8367 18.9978 14.6131 19 9.42182C19.001 6.90627 18.0178 4.5408 16.2316 2.76116C14.4456 0.981667 12.0703 0.00114806 9.53956 0C4.32521 0 0.0813408 4.22333 0.0791881 9.41439ZM3.06598 13.8755L2.87872 13.5796C2.09156 12.3336 1.67608 10.8936 1.67668 9.41507C1.67838 5.10039 5.20555 1.59006 9.54275 1.59006C11.6431 1.59095 13.6171 2.40608 15.1017 3.88502C16.5863 5.3641 17.4033 7.33025 17.4027 9.42142C17.4008 13.7361 13.8736 17.2469 9.53978 17.2469H9.53666C8.12554 17.2461 6.74159 16.8689 5.53464 16.1559L5.24741 15.9863L2.27139 16.7631L3.06598 13.8755Z" fill="url(#paint1_linear_1_493)"/>
<path d="M7.28812 5.4181C7.12223 5.02055 6.94765 5.01253 6.7899 5.00556C6.66072 4.99956 6.51304 5.00001 6.3655 5.00001C6.21783 5.00001 5.97789 5.05991 5.77508 5.29867C5.57207 5.53767 5 6.11521 5 7.28986C5 8.46459 5.79351 9.5998 5.90413 9.75926C6.01488 9.91841 7.43601 12.4061 9.68673 13.3631C11.5573 14.1584 11.9379 14.0003 12.3439 13.9604C12.7499 13.9206 13.6541 13.383 13.8385 12.8255C14.0231 12.268 14.0231 11.7902 13.9678 11.6903C13.9124 11.5908 13.7647 11.5311 13.5433 11.4117C13.3218 11.2923 12.2331 10.7147 12.0302 10.635C11.8272 10.5554 11.6796 10.5157 11.5319 10.7547C11.3842 10.9934 10.9602 11.5311 10.8309 11.6903C10.7018 11.8499 10.5726 11.8698 10.3512 11.7504C10.1296 11.6306 9.41648 11.3788 8.57041 10.5654C7.91213 9.93258 7.46771 9.15105 7.33853 8.91199C7.20935 8.67329 7.3247 8.5439 7.43573 8.42493C7.53522 8.31795 7.65724 8.14613 7.76807 8.00677C7.87848 7.86733 7.91533 7.76785 7.98916 7.60862C8.06307 7.44924 8.02608 7.3098 7.97081 7.19038C7.91533 7.07096 7.48502 5.89016 7.28812 5.4181Z" fill="white"/>
<defs>
<linearGradient id="paint0_linear_1_493" x1="9.5" y1="19" x2="9.5" y2="0" gradientUnits="userSpaceOnUse">
<stop stop-color="#1FAF38"/>
<stop offset="1" stop-color="#60D669"/>
</linearGradient>
<linearGradient id="paint1_linear_1_493" x1="9.5" y1="19" x2="9.5" y2="0" gradientUnits="userSpaceOnUse">
<stop stop-color="#ECECEC"/>
<stop offset="1" stop-color="white"/>
</linearGradient>
</defs>
</svg>
