<svg width="27" height="28" viewBox="0 0 27 28" fill="none" xmlns="http://www.w3.org/2000/svg">
<path d="M0.119311 13.5864C0.118655 15.9429 0.737156 18.2439 1.91323 20.272L0.00683594 27.2013L7.13008 25.3419C9.10028 26.4097 11.3077 26.9692 13.551 26.9693H13.5569C20.9622 26.9693 26.9903 20.9704 26.9934 13.597C26.9948 10.024 25.5984 6.66424 23.0613 4.13653C20.5246 1.60903 17.1509 0.216352 13.5563 0.214722C6.15014 0.214722 0.122368 6.21331 0.119311 13.5864Z" fill="url(#paint0_linear_1_205)"/>
<path d="M0.119311 13.5864C0.118655 15.9429 0.737156 18.2439 1.91323 20.272L0.00683594 27.2013L7.13008 25.3419C9.09272 26.4073 11.3024 26.9685 13.551 26.9693H13.5569C20.9622 26.9693 26.9903 20.9704 26.9934 13.597C26.9948 10.024 25.5984 6.66424 23.0613 4.13653C20.5246 1.60903 17.1509 0.216352 13.5563 0.214722C6.15014 0.214722 0.122368 6.21331 0.119311 13.5864ZM4.36159 19.9228L4.09562 19.5025C2.97757 17.7327 2.38745 15.6875 2.3883 13.5874C2.39072 7.45905 7.40053 2.47316 13.5609 2.47316C16.5441 2.47442 19.3478 3.63219 21.4565 5.73279C23.5652 7.8336 24.7255 10.6262 24.7248 13.5964C24.722 19.7247 19.7121 24.7113 13.5566 24.7113H13.5522C11.5479 24.7102 9.58223 24.1744 7.86795 23.1617L7.45998 22.9209L3.233 24.0242L4.36159 19.9228Z" fill="url(#paint1_linear_1_205)"/>
<path d="M10.3585 7.9103C10.1229 7.34564 9.87491 7.33425 9.65084 7.32435C9.46736 7.31583 9.25761 7.31647 9.04806 7.31647C8.83831 7.31647 8.49752 7.40154 8.20946 7.74068C7.9211 8.08013 7.10857 8.90044 7.10857 10.5689C7.10857 12.2374 8.23563 13.8498 8.39274 14.0763C8.55006 14.3023 10.5685 17.8357 13.7653 19.195C16.4222 20.3246 16.9628 20.1 17.5395 20.0433C18.1162 19.9869 19.4003 19.2232 19.6623 18.4313C19.9245 17.6396 19.9245 16.9609 19.8459 16.819C19.7673 16.6777 19.5576 16.5929 19.243 16.4234C18.9284 16.2537 17.3821 15.4333 17.0939 15.3201C16.8055 15.2071 16.5959 15.1506 16.3861 15.4902C16.1764 15.8292 15.5741 16.5929 15.3905 16.819C15.2071 17.0457 15.0235 17.0739 14.7091 16.9043C14.3944 16.7342 13.3815 16.3765 12.1798 15.2213C11.2448 14.3224 10.6136 13.2124 10.4301 12.8728C10.2466 12.5338 10.4104 12.35 10.5682 12.181C10.7095 12.0291 10.8828 11.7851 11.0402 11.5871C11.197 11.3891 11.2493 11.2478 11.3542 11.0216C11.4592 10.7952 11.4067 10.5972 11.3281 10.4276C11.2493 10.2579 10.6382 8.58079 10.3585 7.9103Z" fill="white"/>
<defs>
<linearGradient id="paint0_linear_1_205" x1="13.5001" y1="27.2013" x2="13.5001" y2="0.214722" gradientUnits="userSpaceOnUse">
<stop stop-color="#1FAF38"/>
<stop offset="1" stop-color="#60D669"/>
</linearGradient>
<linearGradient id="paint1_linear_1_205" x1="13.5001" y1="27.2013" x2="13.5001" y2="0.214722" gradientUnits="userSpaceOnUse">
<stop stop-color="#ECECEC"/>
<stop offset="1" stop-color="white"/>
</linearGradient>
</defs>
</svg>
